<svg id="Layer_1" data-name="Layer 1" xmlns="http://www.w3.org/2000/svg" viewBox="0 0 1440 600"><defs><style>.cls-1,.cls-3{opacity:0.07;}.cls-18,.cls-2{fill:none;}.cls-10,.cls-11,.cls-12,.cls-13,.cls-2,.cls-5,.cls-6,.cls-7,.cls-9{stroke:#000;}.cls-10,.cls-11,.cls-12,.cls-13,.cls-18,.cls-2,.cls-5,.cls-6,.cls-7,.cls-9{stroke-miterlimit:10;}.cls-11,.cls-12,.cls-13,.cls-16,.cls-18,.cls-2,.cls-5,.cls-6,.cls-7,.cls-9{stroke-width:2px;}.cls-4,.cls-5{fill:#f7cec6;}.cls-14,.cls-16,.cls-6{fill:#fff;}.cls-7{fill:#edbd98;}.cls-8,.cls-9{fill:#ff995e;}.cls-10{fill:#33baaa;stroke-width:3px;}.cls-11,.cls-15{fill:#452391;}.cls-12,.cls-19{fill:#99c941;}.cls-13,.cls-20{fill:#973896;}.cls-16{stroke:#fff;stroke-linecap:round;stroke-linejoin:round;}.cls-17{fill:#a19e94;isolation:isolate;opacity:0.49;}.cls-18{stroke:#99c941;}.cls-21{fill:#aaa;}</style></defs><g id="Layer_1-2" data-name="Layer 1-2" class="cls-1"><line class="cls-2" x1="1115.09" y1="255.19" x2="1115.09" y2="61.84"/><line class="cls-2" x1="1076.1" y1="227.56" x2="1076.1" y2="37.37"/><line class="cls-2" x1="1037.1" y1="262.6" x2="1037.1" y2="78.09"/><line class="cls-2" x1="998.11" y1="227.16" x2="998.11" y2="37.37"/><line class="cls-2" x1="959.12" y1="262.6" x2="959.12" y2="37.37"/><line class="cls-2" x1="1310.07" y1="235.28" x2="1310.07" y2="82.55"/><line class="cls-2" x1="1271.07" y1="241.78" x2="1271.07" y2="72.4"/><line class="cls-2" x1="1232.08" y1="256" x2="1232.08" y2="46"/><line class="cls-2" x1="1193.08" y1="234.27" x2="1193.08" y2="96.97"/><line class="cls-2" x1="1154.09" y1="191.41" x2="1154.09" y2="37.37"/><line class="cls-2" x1="980.03" y1="129.37" x2="1401.66" y2="129.37"/><line class="cls-2" x1="923.57" y1="90.37" x2="1346.01" y2="90.37"/><line class="cls-2" x1="942.66" y1="51.38" x2="1251.37" y2="51.38"/><line class="cls-2" x1="923.57" y1="246.22" x2="1151.24" y2="246.22"/><line class="cls-2" x1="923.57" y1="207.22" x2="1346.01" y2="207.22"/><line class="cls-2" x1="939.41" y1="168.23" x2="1401.66" y2="168.23"/></g><g id="Mask_Group_1" data-name="Mask Group 1" class="cls-1"><g id="Group_30515" data-name="Group 30515"><g id="Group_800" data-name="Group 800"><path id="Path_628" data-name="Path 628" d="M771.7,512.94c-5.18,0-10.36-.18-15.46-.59L598.46,384.69c-1.47-4.9-2.75-9.93-3.81-15Z"/></g><g id="Group_801" data-name="Group 801"><path id="Path_629" data-name="Path 629" d="M598.58,280q1.42-4.71,3.14-9.38L867.11,485.35c-2.8,1.76-5.64,3.45-8.51,5Z"/></g><g id="Group_802" data-name="Group 802"><path id="Path_630" data-name="Path 630" d="M745.14,154.08c2.33-.34,4.68-.64,7-.88,2-.21,4-.39,6-.53L949.83,307.78c.59,4.31,1,8.66,1.33,13Z"/></g><g id="Group_803" data-name="Group 803"><path id="Path_631" data-name="Path 631" d="M854,172.26a182,182,0,0,1,56.71,45.88Z"/></g><g id="Group_804" data-name="Group 804"><path id="Path_632" data-name="Path 632" d="M591.15,343.85c-.25-4.06-.37-8.14-.36-12.21L809.72,508.77c-4,.87-8,1.6-12,2.2Z"/></g><g id="Group_805" data-name="Group 805"><path id="Path_633" data-name="Path 633" d="M609,253.51c1.38-2.83,2.85-5.64,4.37-8.38L889.62,468.64c-2.36,2.05-4.8,4.07-7.28,6Z"/></g><g id="Group_806" data-name="Group 806"><path id="Path_634" data-name="Path 634" d="M592.22,309.78c.45-3.57,1-7.11,1.65-10.57L840.81,499c-3.26,1.35-6.61,2.63-10,3.82Z"/></g><g id="Group_807" data-name="Group 807"><path id="Path_635" data-name="Path 635" d="M786.79,152.85c5.94.51,11.87,1.32,17.7,2.41L937.61,263c2.28,5.48,4.31,11.11,6,16.81Z"/></g><g id="Group_808" data-name="Group 808"><path id="Path_636" data-name="Path 636" d="M719.13,505.33a181.07,181.07,0,0,1-106.06-85.81Z"/></g><g id="Group_809" data-name="Group 809"><path id="Path_637" data-name="Path 637" d="M712,162.16c3.51-1.21,7.07-2.32,10.62-3.32l228.62,185c-.23,3.68-.57,7.39-1,11.08Z"/></g><g id="Group_810" data-name="Group 810"><path id="Path_638" data-name="Path 638" d="M640,208.74c2.13-2.26,4.32-4.48,6.56-6.61L924.74,427.2c-1.62,2.63-3.33,5.23-5.09,7.79Z"/></g><g id="Group_811" data-name="Group 811"><path id="Path_639" data-name="Path 639" d="M684.09,174.55c3-1.64,6-3.2,9-4.64L946.53,375c-.78,3.25-1.67,6.52-2.65,9.77Z"/></g><g id="Group_812" data-name="Group 812"><path id="Path_640" data-name="Path 640" d="M622.91,229.83c1.75-2.53,3.59-5,5.48-7.48L908.76,449.19c-2,2.36-4.07,4.68-6.17,6.92Z"/></g><g id="Group_813" data-name="Group 813"><path id="Path_641" data-name="Path 641" d="M660.31,190.23c2.51-2,5.09-3.86,7.7-5.68l269.44,218q-1.85,4.41-4,8.72Z"/></g></g></g><path id="Path_49106" data-name="Path 49106" class="cls-3" d="M491,320.79c22,81.55,106,128.38,187.44,104.47,81.55-22,128.38-106,104.47-187.44-22-81.55-105.95-128.38-187.43-104.46C515.91,157.2,469.08,241.16,491,320.79Z"/><path class="cls-4" d="M503.53,291.4l-51.14-64,70-24.8,72.09,15.71,51.51,26-7.11,7.89L623,251.94l-30.45,58.75a19.37,19.37,0,0,0-6.28,12.38"/><path class="cls-5" d="M522.36,202.56C494.85,206,488,210,481.18,211.51a63.65,63.65,0,0,1-39-3.61c-13.89-6-22.85-1.31-34.51,8.25s-17.15,25.64-15.21,40.64c.65,4.92,2.12,9.91,5.36,13.68s12.68,1.54,17.46.24c9.76,2.91,20.13,4.24,29,9.23,5,2.76,9.28,6.55,13.89,9.86A167.23,167.23,0,0,0,474.94,300c9.61,5.32,19.42,10.72,30.2,12.69,7.31,1.31,14.8,1,22.21.67"/><path class="cls-5" d="M553.6,256.92c-18.19,5.91-38,11.11-56.1,5-9.2-3.06-17.25-8.92-25-14.76"/><path class="cls-6" d="M221.49,264.2c9.53,9.37,21.81,15.42,34.31,20.14,20.29,7.67,44.08,13.58,65.68,14.76,19.73,1,39.8-2,59.11-5.47,7.09-1.28,14.9-3.22,18.86-9.24a14.9,14.9,0,0,1,2.83-3.85c2-1.55,4.79-1.35,7.29-1.16a107.48,107.48,0,0,0,13.31-.11c.54,0,12.6-1.82,11.27-2.87-7-5.51-8-15.74-7.07-24.61a58.89,58.89,0,0,1,3.14-14.3c3.09-8.32,8.59-15.48,14-22.5,1.23-1.59,2.62-3.28,4.59-3.66,1.27-.24,2.88,0,3.44-1.2s-.83-2.42-2-3c-8-3.84-17.22-1.23-25-5-3.84-1.86-5.16-6.89-11.06-8.64l-38.81-11.77c-5.42-1.62-10.15-2.95-14.77-6-4.21-2.81-7.87-6.16-12.52-8.34-1.87-.87-10.68-3-11.13-5.48-.82-4.28,7.9-3.1,8.5-7.32.55-3.92-16-12-17.23-10.22,1.4-2,4.32-1.51,6.73-1.58"/><path class="cls-6" d="M422.89,202.11c-35.17.23-33.71,69.05-20.61,78.42"/><path class="cls-7" d="M1106.11,355.39c-14.79-13.31-46.87-32.44-51.53-35.25-5.38-3.33-24.43-16.75-28.5-20.1s-7.3-7.74-12.3-8.77c-3.87-.8-7.78.71-11.43,2.21-10.73,4.44-21.31,9.12-32,13.78l-14.46,6.36a24,24,0,0,0-5.82,3.23,10.9,10.9,0,0,0-3.51,6.65l19.8,17.09-9.39-.46-7.21,12.27-12.73-2.18c-1.06,6.77-2.56,15-3.58,21.75-.53,3.5-1.05,7.17,0,10.55a7.33,7.33,0,0,0,3.64,4.63,8,8,0,0,0,6.24-.23,21,21,0,0,0,10.34-9.71,43.1,43.1,0,0,0,3.69-9.76l.16.29c4.08,5.54,9.8,11.22,16.24,13.84a32.13,32.13,0,0,0,3.7,1.24l-.06.18a1.48,1.48,0,0,0,.42,1.09,22.23,22.23,0,0,0,9.47,6.7,53.7,53.7,0,0,0,11.37,2.8c.79.13,1.57.23,2.35.32l0,.09a14.85,14.85,0,0,0,11.31,7.05,28.76,28.76,0,0,0,13.5-2.16,16.79,16.79,0,0,0,5.84-3.35c4.33,1.56,8,3.79,11.84,5.11a63.34,63.34,0,0,1,14.4,7.53c4.58,3,13.89,10.06,19,11.73"/><path class="cls-7" d="M976.37,382.8h0c.07,1.57,1.58,2.88,2.66,3.91a23.36,23.36,0,0,0,4.31,3.15,38.33,38.33,0,0,0,11.61,4c3.88.77,8,1.64,12,.89a126.49,126.49,0,0,0,12.61-3.2"/><path class="cls-7" d="M1109.77,356c-8.7-6.3-17.72-12.29-26.64-18.3-8.57-5.75-17.15-11.53-25.84-17.11-8.17-5.24-16.14-10.78-24-16.47-1.83-1.34-3.65-2.71-5.46-4.07-2.7-2.09-5-4.67-7.67-6.76a14.27,14.27,0,0,0-10.91-3.16c-4.26.62-8.25,2.63-12.18,4.28-10.11,4.25-20.15,8.68-30.18,13.1-4.92,2.11-9.89,4.07-14.62,6.5-3.61,1.86-6.59,5.09-6.92,9.32"/><path class="cls-7" d="M935.78,350h.05c-.91,5.92-2,11.76-2.94,17.7-.86,5.23-2.4,11.28,0,16.29s8,5.5,12.69,3.2c4.92-2.38,8.42-7,10.63-11.86a57.31,57.31,0,0,0,3.25-10.79,81.07,81.07,0,0,0,1.84-10.26"/><path class="cls-7" d="M958.78,369.3c4.88,6.57,9.94,11,17.86,13.63a99.54,99.54,0,0,0,13.65,3.12,12.26,12.26,0,0,0,5.62.08,56,56,0,0,0,6.54-2.77"/><polygon class="cls-8" points="480.31 423.62 562.54 439.37 632.55 439.37 697.99 431.19 711.8 449.29 727.37 454.72 746.5 464.15 752.42 456.74 762.29 455.53 766.8 460.69 780.31 457.5 798.66 454.72 816.59 442.7 833.66 442.7 833.66 450.99 799.68 481.4 778.65 498.73 766.91 500.99 750.02 509.9 709.73 524.05 695.23 527.82 665.02 523.98 544.71 497.02 504.33 509.01 480.31 423.62"/><path class="cls-9" d="M725.32,454.72c-2.87-.34-6-3-8.46-4.3-1-.51-4.74-2-5-2.6-1.46-3.23-5.58-4.75-4.88-9,.15-.9,0-4.95.51-5.14,2-.76,4.2-1.29,6.28-1.94a45,45,0,0,1,6.16-1.87c2.68-.39,5.34.22,8,.14,7.19-.2,13.72-.79,20.67-2.94,3.79-1.17,8.12-2.94,10.72-6.08,1.1-1.33,3.76-3.17,4.14-4.91,1.07-4.79,2.35-6.77-1.22-11.11-2.64-3.22-8-2.27-11.62-2.19-6.24.13-13.85-.27-19.83,1.57l-9.23,2.86c-5.14,1.58-10.66,4.11-16,4.9-3.5.52-7.1-.17-10.62.57-3.13.67-6.39,1-9.46,1.79-3.28.82-6.6.93-9.91,2l-9.35,2.89c-3.8,1.18-6.67,3.72-10.39,4.87-2.81.87-5.88,1.5-8.55,2.77-2.09,1-3.67,3.19-5.27,4.82-4.69,4.78-12,6.27-18.34,6.9-4.73.46-9.37,0-14.1.11-7.19.11-14.35.35-21.54.54a252,252,0,0,1-35.52-1.17c-4.07-.47-8.07-.44-12-1.54l-.36-.1c-4.27-1.18-9.23-2.55-13.58-2.82-2.55-.16-5-1.6-7.42-2.44-4.37-1.52-8.8-2-13.31-2.8-7.92-1.48-16.28-3.53-24.4-2.95l.75,3.16M745.9,462.13c-.47.14-1-.66-1.59-.55-1.78.32-4.28-1.49-5.92-2.05-4.27-1.46-8.54-4.27-13.07-4.81M680.9,484.23c5.24-1.06,10-3.65,14.94-5.65,3.56-1.44,6.5-3.69,9.65-5.84,2-1.36,4-2.74,6-4.18,1.53-1.12,2.74-2.65,4.27-3.78,3.43-2.53,8.16-5.93,9.61-10.06m42.6,2.78,0,0c1.67-1.67,1.72-6.76-1-7.85a10.47,10.47,0,0,0-9.16,1.29c-3.2,2.18-7.8,5-9.7,8.41-.34.6-1.48,2.61-2.14,2.81m-43.1,50c1.05-2,2-4.05,3-6.06.73-1.42.29-2.91.75-4.36a14,14,0,0,1,1.7-3.37c.79-1.13,1.35-2.66,2.51-3.52a26.91,26.91,0,0,1,8.32-4.72c2.46-.76,5-1,7.47-1.84.8-.28,1.54-1.72,2-2.38a22.12,22.12,0,0,1,2.57-3.34c1-1,1.64-2.28,2.75-3.16s2.07-1.6,3.08-2.48,1.92-2.31,3.22-3.08c1.9-1.12,1.8-3.91,2.78-5.76,1.08-2.06,1.63-4,2.94-5.92m29.78-2.19c-.79.78-1.4.67-3.19.71-1.55,0-4.11.37-5.69,0-1.31-.28.32-2.39,1.12-3.19m-9.78,22.06c.48-1.43.65-3,1.49-4.27,1.42-2.12,1.68-4.6,2.77-6.83.62-1.26,1.82-2.7,2-4.12a7.67,7.67,0,0,1,1.27-2.39c.69-1.15.33-3,2.26-4.45m9.11.73a12.17,12.17,0,0,1-1.35,1.71m1.35-1.71a18.23,18.23,0,0,1-1.35,1.71m-17.54,19.62a22.94,22.94,0,0,1,2.28-3.29,43,43,0,0,0,3.59-3.55c1-1.17,2-2.25,2.89-3.45.73-.95,1.44-2.08,2.12-3.1,1.47-2.23,4-3.19,6.66-6.23m23-.74a10.59,10.59,0,0,1,2.08-1.22c1.3-.49,2.83-2.47,3.6-3.57,1.71-2.45,4.23-5.1,3.26-8.24s-4.28-7.8-8.13-6.61-7.53,2.12-10.6,5.06c-2.71,2.58-10.9,12.26-11.84,13.61m-7.65,42c.56-1,2.25-.7,3.41-1.06a8.72,8.72,0,0,1,3.7-.16c2.3.54,6.68-.81,8.21-2.64a67.05,67.05,0,0,1,5.82-5.86,23.88,23.88,0,0,0,2-1.63,21.87,21.87,0,0,1,1.81-1.92c1.84-1.75,3.26-4,5.31-5.57,2.25-1.7,4.42-3.43,6.66-5.14,4.95-3.79,9.59-7.62,14.42-11.59,4.1-3.37,9.12-5.48,13.14-8.93,2.34-2,2.59-4.23.86-6.77-1.21-1.78-3.78-2.25-5.59-3.14-2.44-1.2-6.49.52-6.49.52s-16.49,11-20.62,12.32c-.55.18-3.86.83-3.4.53m-29.28,41c.83-1.55,2.59-2.22,3.42-3.78a10.5,10.5,0,0,1,1.76-2.21,43.27,43.27,0,0,0,2.63-3.47,11.45,11.45,0,0,1,2.18-2.45,12.6,12.6,0,0,0,2.6-2.4,14,14,0,0,0,2.88-5.46,11.39,11.39,0,0,1,1.51-3.19c.77-1.34,1.64-2.63,2.39-4,.44-.81,1.29-1.09,1.73-1.93a17.3,17.3,0,0,0,1.39-3.22c.59-2,2.41-3.95,3.61-5.65,1.39-2,.82-2.55,3.18-3.28m-95.62,65a8.5,8.5,0,0,1,3.81-.19c1.69.66,3.66-.15,5.27-.65a12.67,12.67,0,0,0,4.33-2.56c1.09-1,2.73-1.34,4.13-1.77,1.8-.56,3.7-.65,5.53-1.22l6.7-2.07c5.1-1.57,10.14-3.62,15.27-5.21l6-1.84c1.85-.58,3.78-.68,5.64-1.25,3.79-1.17,7.76-3.51,9.68-7.17m-93.24,23.88a54,54,0,0,1,6,1c1.84.52,3.71.78,5.56,1.25,2.29.59,5.22,2.19,7.57,1.47,2.82-.87,5-2.79,7.82-3.65m54.07-42.7a23.6,23.6,0,0,0-2.88,4.65,29.28,29.28,0,0,1-3.11,4.27,19.53,19.53,0,0,0-1.37,2.7c-1.31,2.23-2.88,4.2-4.33,6.34-1.6,2.35-4.76,2.79-6.59,4.82a9.35,9.35,0,0,1-2.18,1.37,13.64,13.64,0,0,0-2.45,1.92,22.9,22.9,0,0,1-2.35,1.42l-3.37,2.32a38.29,38.29,0,0,1-7,3.94c-1.61.66-3,1.61-4.69,2.13a23.17,23.17,0,0,0-4.35,1.76c-.9.51-2,.74-2.85,1.28-.74.45-1.43,1-2.18,1.44-2.1,1.18-2,1.63-4.33,2.34m-204.87-37L504.33,509c1.26.37,3.21-.14,4.55-.3,2.19-.27,4.3-.78,6.51-.91,4.1-.23,8.2,0,12.3,0,5.07.06,10.29-.34,15.33.14,4.22.39,8.36,1.19,12.61,1,3.51-.18,7.07-.67,10.56-.61a17.49,17.49,0,0,0,5.36-.37c1.29-.4,2.5.19,3.75.56a53.21,53.21,0,0,1,8.27,2.87c2.4,1.18,5.15,1,7.8.88h.1c6.46-.36,12.81-.8,19.23.09,1.39.19,2.71.16,4.07.41,1.85.33,3.48,1.13,5.28,1.6,1.55.4,3.23.51,4.81.81s3,.93,4.58,1.25c3.83.81,7.7,1.6,11.49,2.59,1.69.44,3.24,1.35,5,1.67,2.42.45,4.8.93,7.18,1.49A62.34,62.34,0,0,0,665,524c3.7.11,7.41.16,11.11.14m82-44.56a5.29,5.29,0,0,1-1,1.91m1-1.91a17.57,17.57,0,0,0-1,1.91m51.25-34a15.81,15.81,0,0,0,5.21-2.63c1.49-1.15,2.92-2.37,4.4-3.53,1.92-1.5,10.7-4.33,13-4.26,2,.05,4.39,1.26,5.19,3.14a12.16,12.16,0,0,1,.91,4.41c0,1.92-1.45,3.21-3.13,3.81"/><path class="cls-2" d="M601.93,469.5c-.6,1.14-1.71,2.08-2.24,3.37a23.82,23.82,0,0,0-1.09,4.9c-.32,1.74-1.29,3.25-1.59,5a13.93,13.93,0,0,0-.19,5.53,35.88,35.88,0,0,0,1.65,4.56,12.45,12.45,0,0,0,1.32,3.34c2.21,2.91,3.16,6.68,4.22,10.12"/><path class="cls-2" d="M594,471.39a19.54,19.54,0,0,0,1.72-3.27c.77-1.4,1.92-2.56,2.65-4,1.18-2.32,1.46-5.06,2-7.56a56.28,56.28,0,0,1,2.06-5.56"/><path class="cls-2" d="M648.44,449.12c2.47,1.79,4.63,4.16,7.09,6,4.28,3.26,9.53,6.52,14.76,8,6.49,1.81,13.93,1.09,20.56,1.06,5.83,0,11.69-.35,17.52-.76a30.71,30.71,0,0,0,7.08-1.09"/><path class="cls-2" d="M689,421.82c2.88.06,7,1.55,8.83,3.78a30.66,30.66,0,0,1,2.71,3.45,23,23,0,0,1,1.91,5.3"/><path class="cls-2" d="M730.36,412.32a9.47,9.47,0,0,1,.29,4,6.63,6.63,0,0,0,.6,2.44l1.51,4.86"/><path class="cls-2" d="M737.42,418.35c.06-2.81-1.62-6.13-2.45-8.82"/><path class="cls-2" d="M720.77,479.57c5.89-1.82,11.74-3.9,17.65-5.72"/><path class="cls-2" d="M678.41,510.72a21.85,21.85,0,0,1,1.24-5,39.73,39.73,0,0,1,4-8.85c.94-1.62,2-4.1,3.63-5.07a74.67,74.67,0,0,1,7.24-3.4,159.44,159.44,0,0,0,14.65-7.68c2.24-1.34,4.47-2.34,6.17-4.37,1.38-1.63,2.19-3.6,3.59-5.21"/><path class="cls-2" d="M736.67,501c.91,1.81,2.52,1.71,4.23,1.19"/><path class="cls-2" d="M760.45,501.25c.45.37.58,1.08,1,1.5a6.75,6.75,0,0,0,4,1.33"/><path class="cls-2" d="M804.92,472.8a4.14,4.14,0,0,0,2.21,2.31"/><path class="cls-2" d="M778.42,493.21c.49.08.89,1.11,1.15,1.5.57.81,1.77,1.09,2.63,1.44"/><path id="Path-66" d="M657,476.71c17.45-22,23.62-27.11,39.1-26.29s27.74,9,36.76,24.39Z"/><path id="Rectangle-17" class="cls-2" d="M921.81,325.35h0A14.43,14.43,0,0,1,941.43,331l1.6,2.89a14.42,14.42,0,0,1-5.63,19.62h0a14.43,14.43,0,0,1-19.62-5.63l-1.6-2.88A14.44,14.44,0,0,1,921.81,325.35Z"/><polygon id="Path-86" class="cls-6" points="859.18 384.41 873.04 361.32 869.36 359.11 855.72 382.31 859.18 384.41"/><path class="cls-6" d="M930.27,360.05,913,329a7.81,7.81,0,0,0-10.6-3L867,345.56a7.8,7.8,0,0,0-3,10.59l12.89,23.25-64,2.3-2.59,7.81,78.44,2-.05-.29a7.67,7.67,0,0,0,3.13-1l35.42-19.63A7.79,7.79,0,0,0,930.27,360.05Z"/><polygon id="Path-87" class="cls-6" points="813.37 382.06 810.77 377.36 803.61 392.02 811.14 389.32 813.37 382.06"/><path id="Path-99" class="cls-2" d="M802.7,381.78Q757,383.51,738.4,437"/><path id="Path-100" class="cls-2" d="M801.24,385.91q-33.74,5.52-45.93,49.89"/><path id="Path-105" class="cls-5" d="M598.14,305.2q-17.86,20.16-6.47,22.43t35.55-14Z"/><path id="Path-116" class="cls-5" d="M631.67,306.24q16.26-16.1,17.61-23.58t-38.07-36.57l-3.54,55.77Z"/><path id="Path-123" d="M644.4,336.16c-1.9,1.31-3.23,1.78-4,1.41s-2.18-2.23-4.31-5.57l3.23-6.72-5.11-8.47,2.16-4.17q-10.14-7.53-10.76-9.61t1.64-9.39l-2.42-4,2.76.25,5.14,2.32-.27,3.08,2.72-11.93q6,6.93,6.32,7.12c.24.12.67,2.8,1.31,8l2.74,2.94-.49,3.41,3.27,3.55q.57,8.67,1,12.38,1.9,2.36-2.89,10.68Z"/><path id="Rectangle-19" class="cls-6" d="M638.8,262.14l-6.62,46.52h0a4.88,4.88,0,0,1-4.58,4.18,152.5,152.5,0,0,1-28.65-.93,99.32,99.32,0,0,1-23.22-6.27h0a4.85,4.85,0,0,1-3-5.2l6.7-47.13h0a4.89,4.89,0,0,1,4.16-4.14q10-1.36,23.66.58a141.39,141.39,0,0,1,28.39,7.12h0A4.87,4.87,0,0,1,638.8,262.14Z"/><path id="Path-101-Copy" class="cls-10" d="M574,302.82q-2.64,7-7,6.84.45-4.76,2.67-5.94A7.15,7.15,0,0,1,574,302.82Z"/><path id="Path-104" class="cls-5" d="M522.36,202.56q47.35,4.17,56.15,6.71c8.81,2.54,48.31,23.44,63.74,31.25,8,4,2.36,9.24-9.24,11.64"/><path id="Path-106" class="cls-5" d="M589.14,319.91q-16.46,12.42-24.5,10.1c-8-2.32-20-25.2-13.5-31.34q6.47-6.14,30.64,8.85l12.67,3.66Z"/><path id="Path-107" class="cls-5" d="M556.53,316.05q-6.84,11.67-15.59,9.15c-8.74-2.53-30.51-28.62-26.94-41q3.57-12.35,40.85,18.56Z"/><path id="Path-114" class="cls-5" d="M554.23,318.89q-14.16-28.08-6.38-34.11c5.45-4.21,9-.2,21.72,14.39q2.82,3.22,13.41,9.59"/><path class="cls-11" d="M745.94,222a30,30,0,0,1-8.52,17c-7.16,7.5-24.87,6.88-31.58-1a11.93,11.93,0,0,1-2.82-9.7c1.13-9.47,6.66-15.5,14.83-19.62,1.92-1,4-1.52,6-2.37,6.77-3,15.73-.9,19.91,5a12.69,12.69,0,0,1,2.2,10.72Z"/><path class="cls-12" d="M761.79,302.31a22.37,22.37,0,0,1-6.22,11.4c-4.79,4.84-15.48,3.44-19.09-2.37a9.12,9.12,0,0,1-1.15-6.89,16.9,16.9,0,0,1,10.19-12.86c1.24-.57,2.51-.85,3.75-1.37a9.49,9.49,0,0,1,11.77,4.5,9.75,9.75,0,0,1,.75,7.59Z"/><path class="cls-13" d="M689.57,271.94a21.64,21.64,0,0,1-4,13.37c-4.25,6.37-17.11,8.15-22.94,3.4a9.16,9.16,0,0,1-3.37-6.67c-.38-7,2.83-12.08,8.19-16.07,1.27-.91,2.69-1.62,4-2.49,4.49-3,11.26-2.7,15.07,1a9.22,9.22,0,0,1,3,7.43Z"/><line class="cls-2" x1="671.14" y1="291.39" x2="686.54" y2="455.59"/><line class="cls-2" x1="724.61" y1="244.18" x2="694.84" y2="453.31"/><line class="cls-2" x1="744.11" y1="316.35" x2="704.46" y2="452.16"/><path class="cls-14" d="M606.14,321.43a19.42,19.42,0,0,1-11.53,4.42c-2-.15-7.87-2.4-3.73-4.08,3.43-1.38,11.67-6.22,15.36-3.47a1.88,1.88,0,0,1,.8,2.07A2.44,2.44,0,0,1,606.14,321.43Z"/><path class="cls-14" d="M517.62,297.19c-3.1-3.44-5.44-9.39-1.68-13.13a1.1,1.1,0,0,1,.77-.4c.47.07.75.5.94.94,1.73,3.84,3.89,7.31,3.44,11.65a2.44,2.44,0,0,1-.87,1.93C519.36,298.57,518.3,297.93,517.62,297.19Z"/><path class="cls-14" d="M546.67,287.69a1.87,1.87,0,0,1,2.64.13l0,0a6.77,6.77,0,0,1,1.51,2.42c1.32,3.08,2.78,6.18,3.8,9.39a3.74,3.74,0,0,1,.21,2.24,2.55,2.55,0,0,1-2.88,1.51,5,5,0,0,1-2.86-2,19.64,19.64,0,0,1-2.87-6.17,9.89,9.89,0,0,1-.8-5.34A4.39,4.39,0,0,1,546.67,287.69Z"/><path class="cls-15" d="M931.15,372.52a15,15,0,0,1,1.61-5.15,5.15,5.15,0,0,1,4.42-2.69,2,2,0,0,1,1.07.33,2.26,2.26,0,0,1,.55.9c2.85,6.8-.16,13-7.2,15.07C930.26,378.39,930.72,375.28,931.15,372.52Z"/><path class="cls-2" d="M346.79,490c7.72,6.27,15,16.75,24.68,14.3,2.32-.58,4.37-1.94,6.8-2.3,5.5-.81,10.12,3.67,14.19,7.42,6.91,6.38,17.53,11.68,25.24,6.31,1.9-1.32,3.55-3.25,5.84-3.55a8.88,8.88,0,0,1,5.08,1.43c6.89,3.63,15.34,7.74,21.92,3.58,3.7-2.35,6-7,10.22-8,3.19-.75,6.43.79,9.45,2.08,4.4,1.89,9.28,3.31,13.94,2.19s8.76-5.57,8-10.29c-.22-1.38-.81-2.83-.4-4.19.63-1.94,3-2.57,5-2.91l17.74-2.94c-2.72-10.35-9.36-19.17-14.11-28.77s-7.47-21.42-2.15-30.75c1-1.77,2.34-3.58,2.29-5.58-.09-3.52-4-5.49-7.32-6.58-32.67-10.54-68.47-8.34-101-19.28-6.06-2-12-4.51-18.33-5.12"/><path class="cls-2" d="M384.31,485.69c-8-5.29-12.73-14.07-14.33-23.32-1.92-10.59.16-21.32,3.73-31.32,2.2-6.19,5-12.19,7.72-18.07a.91.91,0,0,0-.45-1.22.89.89,0,0,0-.89.07c-20.42,15.56-25.43,64.62-26.63,66.82-2.82,5.21.68-45.64,12.37-65.25"/><path class="cls-2" d="M348.58,411.69h0a76.85,76.85,0,0,0-28.1,64,.93.93,0,0,0,1.75.31,165,165,0,0,1,43.28-62.28"/><path class="cls-6" d="M510.32,450.22a55.45,55.45,0,0,0,6.85,39.22c4.74,8.07,11.27,22.62-4.86,23.76-7.84.55-18.32,1.39-24.66-4.08-3.6-3.1-5.64-7.61-7.29-12.08a125.2,125.2,0,0,1-5.76-65.94c.82-4.5,2.24-9.45,6.19-11.78s9-1.15,13.49.11c6.67,1.92,14.12,4.4,17.11,10.67S511.72,443.51,510.32,450.22Z"/><path class="cls-2" d="M518,503.34a281.39,281.39,0,0,1-45-.88"/><path class="cls-2" d="M516.9,494.57l-46.58-2.49"/><path class="cls-2" d="M510.92,478.06l-47.39-5.39"/><path class="cls-2" d="M508,460.72l-46.31-4.09"/><path class="cls-2" d="M511.37,447.31l-52.86-10.85"/><path class="cls-2" d="M510,437a250.14,250.14,0,0,0-45.2-12.45"/><path class="cls-2" d="M1223.37,385.57c-5.27,7.07,22.25,39.84,26.33,45.86,13.81,19.86,13.58,35.34.74,57.79-15.41-5-4.7-31.64-20.07-39.61.39,14.11,12.86,30.57.17,42.7-3.86-7.81-5.37-80.7-21-72.79-9.6,4.82,16.42,57.83,2.5,72.91,6.86-7.44-8-48.57-11.08-56.55-3.64-9.19-8.45-19.59-16.3-26.06-6.28-5.05-28.66-22.66-35.55-26.73"/><path class="cls-2" d="M359.71,222.31c-8.88-4.1-53.69-21.64-58.07-7.41-2.5,8.11,8.86,18.6,7.32,28.9-17.72,3.12-17.17-34-37.68-30.53,1.8,12.93,19.2,17.75,16.78,33.6-10.4-7.89-16.69-26.25-33-22.52,4.27,6.41,11.31,13.67,10.59,22.19,0,.8-23.81-27.95-26.71-33.35-7.74-14.21-12.29-29-31.85-21.52-4.2,1.53-3.32,9.29-10.67,9.38-6.55.1-7.44-6.86-11.57-9.9"/><path class="cls-6" d="M1064.22,405.87c4.22-3.71,10.23-7.2,13.46-10.72a126.69,126.69,0,0,0,17.64-24.56,69.4,69.4,0,0,0,7.06-21.35c.46-4.16,40.82,19.47,45.27,27.08,5.62,9.61-2.85,18.42-7.53,26.1-11.19,18.1-24.87,44.31-47.39,49.54-6.77,1.49-5.56-.08-10-7.1-7.18-11.62-10.34-26.36-22.33-34.28A13,13,0,0,1,1064.22,405.87Z"/><path class="cls-2" d="M1148.39,393.6c-3.24-9.38-43.93-37-46.1-38.2"/><path class="cls-2" d="M1133.49,421.58c-11.59-8.91-37.82-34.71-44.69-39.77"/><path class="cls-2" d="M1139.88,405.19c-6.82-8.63-38.1-28.75-44.19-33.21"/><path class="cls-2" d="M1092.91,453.35c-2-14.32-26.17-43.67-30.1-46.51"/><path class="cls-2" d="M1111.52,443.3c-3.12-3.82-6-7.83-8.76-11.84-8.16-12-20.89-24.14-28.51-32.59"/><path class="cls-2" d="M1122.39,433.53c-8.8-9.26-38.32-40.87-40.46-43.68"/><path class="cls-16" d="M628.17,238.69c1-4.44,13,1.74,15,3.78a2.74,2.74,0,0,1,.74,1.23A2.42,2.42,0,0,1,642.5,246c-2.1,1.26-6.42.83-9.81-.76C629.74,243.79,627.52,241.5,628.17,238.69Z"/><path class="cls-5" d="M643.85,247.8c-4.92,4.39-12.1,5.36-18.62,4.5s-12.71-3.46-19-5.48c-9.12-2.92-18.57-4.66-28-6.39"/><path class="cls-7" d="M1003,319.79c-1.56,2.89-4.81,4.49-8,5.08a72.79,72.79,0,0,1-9.79.48c-6.34.27-12.58,2-18.94,2-14.05-.09-27.57-8.95-41.38-6.28a6,6,0,0,0-2.54,1c-.69.61-2.76,2.26-3.14,3.09a12.4,12.4,0,0,0-1.33,10,13,13,0,0,0,4.05,5.93,43.24,43.24,0,0,0,18.89,10.38c6.22,1.58,12.66,1.8,19,2.57s12.83,2.41,17.88,6.34a51.86,51.86,0,0,1,7.73,8.22,81.39,81.39,0,0,0,7.4,7.91c10.07,9.18,25.74,15.37,38.89,19"/><path class="cls-15" d="M924.81,332.4a10,10,0,0,1,.37-4.33,4.85,4.85,0,0,1,2.4-3.44,8.86,8.86,0,0,1,5.73,0A30.76,30.76,0,0,1,941,328.4a10.23,10.23,0,0,1,4.72,6.22c.78,2.8-1.24,7.63-4.55,8a6,6,0,0,1-3.31-.25,30.31,30.31,0,0,1-7.12-2.14A8.66,8.66,0,0,1,924.81,332.4Z"/><line class="cls-2" x1="1082.12" y1="448.56" x2="1107" y2="494.66"/><path class="cls-2" d="M490.44,100.13V86.81"/><path class="cls-2" d="M490.44,121.64V108.32"/><path class="cls-2" d="M494.54,104.22h13.32"/><path class="cls-2" d="M473,104.22h13.32"/><path id="Path_50605" data-name="Path 50605" class="cls-17" d="M999.72,157a13.28,13.28,0,1,0-2.51-18.6A13.28,13.28,0,0,0,999.72,157Z"/><path d="M958.91,144.25a3.41,3.41,0,0,0-3.42,3.41h0a3.41,3.41,0,0,0,3.41,3.43h0a3.41,3.41,0,0,0,3.42-3.41v0a3.41,3.41,0,0,0-3.41-3.42Z"/><path d="M996,144.25a3.42,3.42,0,0,0-3.43,3.41h0A3.42,3.42,0,0,0,996,151.1h0a3.41,3.41,0,0,0,3.42-3.41v0a3.41,3.41,0,0,0-3.41-3.42Z"/><path id="XMLID_228_2" data-name="XMLID 228 2" d="M1033.14,144.25a3.42,3.42,0,0,0-3.43,3.41h0a3.42,3.42,0,0,0,3.41,3.43h0a3.41,3.41,0,0,0,3.42-3.41v0A3.45,3.45,0,0,0,1033.14,144.25Z"/><path id="XMLID_227_2" data-name="XMLID 227 2" d="M1070.23,144.25a3.42,3.42,0,0,0-3.43,3.41h0a3.42,3.42,0,0,0,3.41,3.43h0a3.42,3.42,0,0,0,3.42-3.41v0a3.42,3.42,0,0,0-3.41-3.42Z"/><path id="XMLID_226_2" data-name="XMLID 226 2" d="M1107.37,144.25a3.42,3.42,0,0,0-3.43,3.41h0a3.42,3.42,0,0,0,3.41,3.43h0a3.41,3.41,0,0,0,3.42-3.41v0A3.48,3.48,0,0,0,1107.37,144.25Z"/><path id="XMLID_225_2" data-name="XMLID 225 2" d="M1144.46,144.25a3.42,3.42,0,0,0-3.43,3.41h0a3.42,3.42,0,0,0,3.41,3.43h0a3.42,3.42,0,0,0,3.42-3.41v0a3.42,3.42,0,0,0-3.41-3.42Z"/><path d="M1181.54,144.25a3.42,3.42,0,0,0-3.42,3.41h0a3.42,3.42,0,0,0,3.41,3.43h0a3.42,3.42,0,0,0,3.43-3.41v0a3.42,3.42,0,0,0-3.41-3.42Z"/><path id="XMLID_223_2" data-name="XMLID 223 2" d="M1218.68,151.1a3.42,3.42,0,0,0,3.43-3.41v0a3.42,3.42,0,0,0-3.41-3.42h0a3.42,3.42,0,0,0-3.42,3.41h0a3.42,3.42,0,0,0,3.41,3.43Z"/><path d="M958.91,169.91a3.4,3.4,0,0,0-3.42,3.41h0a3.4,3.4,0,0,0,3.41,3.42h0a3.4,3.4,0,0,0,3.42-3.41h0a3.4,3.4,0,0,0-3.41-3.42Z"/><path id="XMLID_221_2" data-name="XMLID 221 2" d="M996,169.91a3.42,3.42,0,0,0-3.43,3.41h0a3.42,3.42,0,0,0,3.42,3.42h0a3.4,3.4,0,0,0,3.42-3.41h0a3.4,3.4,0,0,0-3.41-3.42Z"/><path d="M1033.14,169.91a3.42,3.42,0,0,0-3.43,3.41h0a3.42,3.42,0,0,0,3.41,3.42h0a3.4,3.4,0,0,0,3.42-3.41h0A3.44,3.44,0,0,0,1033.14,169.91Z"/><path d="M1070.23,169.91a3.42,3.42,0,0,0-3.43,3.41h0a3.42,3.42,0,0,0,3.41,3.42h0a3.41,3.41,0,0,0,3.42-3.41h0a3.41,3.41,0,0,0-3.41-3.42Z"/><path d="M1107.37,169.91a3.42,3.42,0,0,0-3.43,3.41h0a3.42,3.42,0,0,0,3.41,3.42h0a3.4,3.4,0,0,0,3.42-3.41h0A3.48,3.48,0,0,0,1107.37,169.91Z"/><path d="M1144.46,169.91a3.41,3.41,0,0,0-3.43,3.41h0a3.41,3.41,0,0,0,3.41,3.42h0a3.41,3.41,0,0,0,3.42-3.41h0a3.41,3.41,0,0,0-3.41-3.42Z"/><path d="M1181.54,169.91a3.41,3.41,0,0,0-3.42,3.41h0a3.41,3.41,0,0,0,3.41,3.42h0a3.42,3.42,0,0,0,3.43-3.41h0a3.42,3.42,0,0,0-3.41-3.42Z"/><path d="M1218.68,169.91a3.41,3.41,0,0,0-3.42,3.41h0a3.41,3.41,0,0,0,3.41,3.42h0a3.42,3.42,0,0,0,3.43-3.41h0a3.42,3.42,0,0,0-3.41-3.42Z"/><path d="M958.91,195.56a3.42,3.42,0,0,0-3.42,3.41v0a3.41,3.41,0,0,0,3.41,3.42h0a3.4,3.4,0,0,0,3.42-3.41h0a3.42,3.42,0,0,0-3.41-3.43Z"/><path d="M996,195.56a3.43,3.43,0,0,0-3.43,3.41v0a3.42,3.42,0,0,0,3.41,3.42h0a3.4,3.4,0,0,0,3.42-3.41h0a3.42,3.42,0,0,0-3.41-3.43Z"/><path d="M1033.14,195.56a3.43,3.43,0,0,0-3.43,3.41v0a3.42,3.42,0,0,0,3.41,3.42h0a3.4,3.4,0,0,0,3.42-3.41h0A3.45,3.45,0,0,0,1033.14,195.56Z"/><path d="M1070.23,195.56a3.43,3.43,0,0,0-3.43,3.41v0a3.42,3.42,0,0,0,3.41,3.42h0a3.41,3.41,0,0,0,3.42-3.41h0a3.42,3.42,0,0,0-3.41-3.43Z"/><path d="M1107.37,195.56a3.43,3.43,0,0,0-3.43,3.41v0a3.42,3.42,0,0,0,3.41,3.42h0a3.4,3.4,0,0,0,3.42-3.41h0A3.49,3.49,0,0,0,1107.37,195.56Z"/><path d="M1144.46,195.56A3.42,3.42,0,0,0,1141,199v0a3.42,3.42,0,0,0,3.41,3.42h0a3.41,3.41,0,0,0,3.42-3.41h0a3.42,3.42,0,0,0-3.41-3.43Z"/><path d="M1181.54,195.56a3.42,3.42,0,0,0-3.42,3.41v0a3.42,3.42,0,0,0,3.41,3.42h0A3.42,3.42,0,0,0,1185,199h0a3.43,3.43,0,0,0-3.41-3.43Z"/><path d="M1218.68,195.56a3.42,3.42,0,0,0-3.42,3.41v0a3.42,3.42,0,0,0,3.41,3.42h0a3.42,3.42,0,0,0,3.43-3.41h0a3.42,3.42,0,0,0-3.41-3.43Z"/><path d="M958.91,221.27a3.41,3.41,0,0,0-3.42,3.41v0a3.41,3.41,0,0,0,3.41,3.42h0a3.41,3.41,0,0,0,3.42-3.41h0a3.42,3.42,0,0,0-3.41-3.43Z"/><path d="M996,221.27a3.42,3.42,0,0,0-3.43,3.41v0a3.42,3.42,0,0,0,3.41,3.42h0a3.41,3.41,0,0,0,3.42-3.41h0a3.41,3.41,0,0,0-3.41-3.43Z"/><path d="M1033.14,221.27a3.42,3.42,0,0,0-3.43,3.41v0a3.42,3.42,0,0,0,3.42,3.42h0a3.41,3.41,0,0,0,3.42-3.41h0A3.45,3.45,0,0,0,1033.14,221.27Z"/><path d="M1070.23,221.27a3.42,3.42,0,0,0-3.43,3.41v0a3.42,3.42,0,0,0,3.41,3.42h0a3.42,3.42,0,0,0,3.42-3.41h0a3.42,3.42,0,0,0-3.41-3.43Z"/><path d="M1107.37,221.27a3.42,3.42,0,0,0-3.43,3.41v0a3.42,3.42,0,0,0,3.41,3.42h0a3.41,3.41,0,0,0,3.42-3.41h0A3.49,3.49,0,0,0,1107.37,221.27Z"/><path d="M1144.46,221.27a3.42,3.42,0,0,0-3.43,3.41v0a3.42,3.42,0,0,0,3.41,3.42h0a3.42,3.42,0,0,0,3.42-3.41h0a3.42,3.42,0,0,0-3.41-3.43Z"/><path d="M1181.54,221.27a3.42,3.42,0,0,0-3.42,3.41v0a3.42,3.42,0,0,0,3.41,3.42h0a3.42,3.42,0,0,0,3.43-3.41h0a3.43,3.43,0,0,0-3.41-3.43Z"/><path d="M1218.68,221.27a3.42,3.42,0,0,0-3.42,3.41v0a3.42,3.42,0,0,0,3.41,3.42h0a3.42,3.42,0,0,0,3.43-3.41h0a3.42,3.42,0,0,0-3.41-3.43Z"/><path id="Path_50604" data-name="Path 50604" class="cls-18" d="M1207,295a4.4,4.4,0,1,0-6.06-1.35A4.46,4.46,0,0,0,1207,295Z"/><line class="cls-2" x1="804.77" y1="189.19" x2="840.01" y2="189.21"/><line class="cls-2" x1="792.88" y1="144.67" x2="823.44" y2="127.06"/><line class="cls-2" x1="760.33" y1="112.04" x2="777.99" y2="81.54"/><line class="cls-2" x1="715.84" y1="100.05" x2="715.86" y2="64.81"/><path class="cls-2" d="M268.78,366.36c5.35,0,5.35-7.91,10.66-7.91s5.32,7.91,10.67,7.91,5.31-7.91,10.66-7.91,5.32,7.91,10.63,7.91,5.35-7.91,10.66-7.91"/><path class="cls-19" d="M95.05,331.31c-1-14.6-4.66-27.34-9.89-36.57l-10.8,3L83,291.23c-6-8.8-13.7-13.36-22-11.63-16.25,3.39-11.41,43.87-1.07,68.3a156,156,0,0,0,26.77,41.75A143.73,143.73,0,0,0,95.05,331.31Z"/><path class="cls-15" d="M105.93,408s-1.25-13.2,3-25c3.61-9.91,10-17.3,15.16-14.27,6.06,3.57,2.49,14.62-3,23S105.93,408,105.93,408Z"/><path class="cls-2" d="M62.09,279.13c.31,1.07,30.5,108.13,30.5,170.43,0,33.64,1.6,89.82,1.62,90.38"/><path class="cls-20" d="M78.29,496.26s-1.07-21.21-11.24-32.81-25.85-16.94-32.3-12.13-3.57,24,14.27,35.49C67.05,498.4,78.29,496.26,78.29,496.26Z"/><path class="cls-2" d="M94.21,528.9C88.59,498.22,64,482,63.79,481.8"/><path class="cls-2" d="M93.09,481.47C94.17,428.85,108.8,398.32,109,398"/><path class="cls-19" d="M192.24,393.37c12.48-16.19,11.12-26.19,9.1-31.14-4.12-10.06-33.68-10.47-58.14,22.22a83.06,83.06,0,0,0-6.27,9.73l15.32,5.3-17.42-1.12C124.73,419.57,127,438.3,127,438.3s20.84-2.68,48.62-27.49a146.22,146.22,0,0,0,13.26-13.32L181,389.64Z"/><path class="cls-2" d="M93.58,515.25c11.78-50,39.39-89.64,61.18-114.07,23.56-26.48,44.7-41.33,44.91-41.48"/><circle class="cls-21" cx="204.36" cy="424.87" r="11.91"/><path class="cls-21" d="M195.92,510.09a4,4,0,1,1-4-4A4,4,0,0,1,195.92,510.09Z"/><path class="cls-2" d="M1405.64,233.79c-2.54-7.07-14.11-11.19-26.53-11.76a72.73,72.73,0,0,1,.34,8.73,39.86,39.86,0,0,0-3.71-8.81,74,74,0,0,0-23.57,3.7c-19.41,6.72-28.85,19.15-22.51,36.28,2.35,6.35,6.49,10,11.43,11.84a33.46,33.46,0,0,0,.53-8.3s.73,4.75,1.5,9c9.05,2.41,20.18-.39,28.05-3.54a81,81,0,0,0-4.5-23.67s5.49,5.82,10.7,20.83C1392.58,260.17,1410.19,246.43,1405.64,233.79Z"/><path class="cls-2" d="M1329.61,244.89c5.36-8.39,7-19.09,7-27.52a81.08,81.08,0,0,0-5.31-28.69c-3.49-.54-13.42-1.84-21.9-.7,0,0,10.75-3.64,20.69-2.33-6.67-15.85-16-28.3-26.82-28.34-16.22-.06-32.91,33.48-33.34,59.22q0,2.46.06,4.8c3.85-.4,9.67-.9,16.5-1.06,12.41-.3,16.78.83,16.78.83s-21.7,1.69-32.91,5.21c2.2,20.05,12.8,32.4,32.64,32.3,11.47-.05,19.18-4.38,24.3-10.58l-13.18-2.54C1314.32,245.42,1324.42,245.06,1329.61,244.89Z"/><line class="cls-2" x1="1303.99" y1="157.77" x2="1303.99" y2="399.25"/><path class="cls-2" d="M1302.78,286.62c.37-.47,38.52-46.88,102.35-52.88"/><path class="cls-15" d="M1331.61,319.51a8.73,8.73,0,1,1-8.73-8.73h0A8.73,8.73,0,0,1,1331.61,319.51Z"/><circle class="cls-3" cx="1359.89" cy="290.42" r="11.91"/><circle class="cls-20" cx="1259.16" cy="278.39" r="17.68"/><path class="cls-21" d="M1351.45,375.64a4,4,0,1,1-4-4A4,4,0,0,1,1351.45,375.64Z"/></svg>