<svg id="Layer_1" data-name="Layer 1" xmlns="http://www.w3.org/2000/svg" viewBox="0 0 414 614"><defs><style>.cls-1,.cls-3{opacity:0.07;}.cls-18,.cls-2{fill:none;}.cls-10,.cls-11,.cls-12,.cls-13,.cls-2,.cls-5,.cls-6,.cls-7,.cls-9{stroke:#000;}.cls-10,.cls-11,.cls-12,.cls-13,.cls-18,.cls-2,.cls-5,.cls-6,.cls-7,.cls-9{stroke-miterlimit:10;}.cls-4,.cls-5{fill:#f7cec6;}.cls-14,.cls-16,.cls-6{fill:#fff;}.cls-7{fill:#edbd98;}.cls-8,.cls-9{fill:#ff995e;}.cls-10{fill:#33baaa;stroke-width:3px;}.cls-11,.cls-15{fill:#452391;}.cls-11{stroke-width:2px;}.cls-12,.cls-19{fill:#99c941;}.cls-13,.cls-20{fill:#973896;}.cls-16{stroke:#fff;stroke-linecap:round;stroke-linejoin:round;}.cls-17{fill:#a19e94;isolation:isolate;opacity:0.49;}.cls-18{stroke:#99c941;}.cls-21{fill:#aaa;}</style></defs><g id="Layer_1-2" data-name="Layer 1-2" class="cls-1"><line class="cls-2" x1="243.76" y1="579.26" x2="243.76" y2="458.29"/><line class="cls-2" x1="219.36" y1="561.98" x2="219.36" y2="442.98"/><line class="cls-2" x1="194.96" y1="583.9" x2="194.96" y2="468.46"/><line class="cls-2" x1="170.56" y1="561.73" x2="170.56" y2="442.98"/><line class="cls-2" x1="146.17" y1="583.9" x2="146.17" y2="442.98"/><line class="cls-2" x1="365.75" y1="566.81" x2="365.75" y2="471.25"/><line class="cls-2" x1="341.35" y1="570.88" x2="341.35" y2="464.9"/><line class="cls-2" x1="316.95" y1="579.77" x2="316.95" y2="448.38"/><line class="cls-2" x1="292.56" y1="566.18" x2="292.56" y2="480.27"/><line class="cls-2" x1="268.16" y1="539.36" x2="268.16" y2="442.98"/><line class="cls-2" x1="159.25" y1="500.54" x2="423.06" y2="500.54"/><line class="cls-2" x1="123.93" y1="476.14" x2="388.24" y2="476.14"/><line class="cls-2" x1="135.87" y1="451.74" x2="329.02" y2="451.74"/><line class="cls-2" x1="123.93" y1="573.65" x2="266.38" y2="573.65"/><line class="cls-2" x1="123.93" y1="549.25" x2="388.24" y2="549.25"/><line class="cls-2" x1="133.84" y1="524.86" x2="423.06" y2="524.86"/></g><g id="Mask_Group_1" data-name="Mask Group 1" class="cls-1"><g id="Group_30515" data-name="Group 30515"><g id="Group_800" data-name="Group 800"><path id="Path_628" data-name="Path 628" d="M246.21,404.78c-3.25,0-6.49-.12-9.68-.38l-98.72-79.87c-.92-3.07-1.72-6.21-2.38-9.38Z"/></g><g id="Group_801" data-name="Group 801"><path id="Path_629" data-name="Path 629" d="M137.88,259c.6-2,1.26-3.93,2-5.87l166,134.36c-1.75,1.1-3.53,2.15-5.32,3.14Z"/></g><g id="Group_802" data-name="Group 802"><path id="Path_630" data-name="Path 630" d="M229.58,180.24c1.46-.21,2.93-.4,4.39-.55,1.24-.13,2.49-.24,3.73-.33l120,97.05c.37,2.7.65,5.42.83,8.12Z"/></g><g id="Group_803" data-name="Group 803"><path id="Path_631" data-name="Path 631" d="M297.67,191.62a113.88,113.88,0,0,1,35.48,28.7Z"/></g><g id="Group_804" data-name="Group 804"><path id="Path_632" data-name="Path 632" d="M133.24,299c-.16-2.54-.24-5.1-.23-7.64L270,402.17c-2.48.54-5,1-7.51,1.37Z"/></g><g id="Group_805" data-name="Group 805"><path id="Path_633" data-name="Path 633" d="M144.41,242.45q1.29-2.65,2.73-5.24L320,377.05c-1.47,1.29-3,2.56-4.55,3.77Z"/></g><g id="Group_806" data-name="Group 806"><path id="Path_634" data-name="Path 634" d="M133.9,277.66c.29-2.23.63-4.45,1-6.62l154.5,125q-3.06,1.27-6.26,2.39Z"/></g><g id="Group_807" data-name="Group 807"><path id="Path_635" data-name="Path 635" d="M255.65,179.47c3.71.32,7.42.83,11.07,1.51L350,248.37c1.43,3.42,2.7,6.95,3.79,10.52Z"/></g><g id="Group_808" data-name="Group 808"><path id="Path_636" data-name="Path 636" d="M213.31,400A113.37,113.37,0,0,1,147,346.33Z"/></g><g id="Group_809" data-name="Group 809"><path id="Path_637" data-name="Path 637" d="M208.82,185.3c2.2-.76,4.43-1.46,6.65-2.08L358.52,299c-.15,2.3-.36,4.62-.65,6.93Z"/></g><g id="Group_810" data-name="Group 810"><path id="Path_638" data-name="Path 638" d="M163.81,214.44c1.33-1.41,2.7-2.8,4.1-4.14L342,351.13c-1,1.64-2.08,3.27-3.19,4.87Z"/></g><g id="Group_811" data-name="Group 811"><path id="Path_639" data-name="Path 639" d="M191.39,193.05q2.79-1.55,5.63-2.9l158.57,128.3c-.49,2-1,4.08-1.66,6.11Z"/></g><g id="Group_812" data-name="Group 812"><path id="Path_640" data-name="Path 640" d="M153.11,227.63q1.65-2.37,3.43-4.67L332,364.89c-1.25,1.47-2.54,2.93-3.86,4.33Z"/></g><g id="Group_813" data-name="Group 813"><path id="Path_641" data-name="Path 641" d="M176.51,202.86q2.36-1.85,4.82-3.56L349.91,335.71c-.77,1.84-1.6,3.66-2.47,5.45Z"/></g></g></g><path id="Path_49106" data-name="Path 49106" class="cls-3" d="M70.58,284.55c13.77,51,66.3,80.32,117.28,65.37,51-13.77,80.32-66.3,65.36-117.28-13.77-51-66.29-80.33-117.27-65.37C86.16,182.19,56.86,234.73,70.58,284.55Z"/><path class="cls-4" d="M103.74,254.28,79.29,223.66l33.45-11.86,34.47,7.52,24.63,12.43-3.4,3.77-7.57-.11L146.31,263.5a9.23,9.23,0,0,0-3,5.92"/><path class="cls-5" d="M112.74,211.8c-13.15,1.63-16.42,3.54-19.69,4.28a30.41,30.41,0,0,1-18.64-1.73c-6.63-2.86-10.92-.62-16.49,4s-8.21,12.26-7.28,19.43a12.37,12.37,0,0,0,2.57,6.54c1.54,1.8,6.06.74,8.35.12,4.66,1.39,9.62,2,13.85,4.41a71.22,71.22,0,0,1,6.64,4.71,80,80,0,0,0,8,4.86c4.59,2.54,9.29,5.13,14.44,6.06a48.32,48.32,0,0,0,10.62.33"/><path class="cls-5" d="M127.68,237.8c-8.69,2.82-18.16,5.31-26.82,2.38-4.4-1.46-8.25-4.27-12-7.06"/><path class="cls-6" d="M-31.11,241.27c4.55,4.48,10.43,7.38,16.4,9.64,9.71,3.66,21.08,6.49,31.41,7,9.43.5,19-.95,28.26-2.61,3.39-.62,7.12-1.54,9-4.42a7,7,0,0,1,1.36-1.84,5,5,0,0,1,3.48-.56,50.15,50.15,0,0,0,6.37-.05c.26,0,6-.87,5.39-1.37-3.36-2.64-3.83-7.53-3.38-11.77a28.17,28.17,0,0,1,1.5-6.84c1.47-4,4.11-7.39,6.7-10.75a4,4,0,0,1,2.2-1.75c.6-.12,1.37,0,1.64-.58s-.4-1.15-1-1.43c-3.83-1.84-8.23-.59-12-2.38-1.83-.88-2.46-3.29-5.28-4.13l-18.56-5.62A24.53,24.53,0,0,1,35.4,199c-2-1.34-3.77-2.95-6-4-.89-.41-5.1-1.46-5.32-2.62-.4-2,3.77-1.48,4.06-3.5s-7.63-5.74-8.23-4.88c.66-.94,2.06-.72,3.21-.76"/><path class="cls-6" d="M65.19,211.59c-16.82.11-16.13,33-9.86,37.49"/><path class="cls-7" d="M391.85,284.88c-7.07-6.37-22.41-15.51-24.64-16.86-2.57-1.59-11.68-8-13.62-9.61s-3.49-3.7-5.88-4.19c-1.85-.39-3.72.34-5.47,1.06-5.13,2.12-10.18,4.36-15.28,6.58l-6.92,3a11.84,11.84,0,0,0-2.78,1.55,5.23,5.23,0,0,0-1.68,3.18l9.47,8.17-4.49-.22-3.45,5.87L311,282.4c-.5,3.24-1.22,7.16-1.71,10.4a11.18,11.18,0,0,0,0,5.05,3.45,3.45,0,0,0,1.74,2.21,3.81,3.81,0,0,0,3-.11,10,10,0,0,0,4.94-4.64,20.43,20.43,0,0,0,1.77-4.67l.08.14c2,2.65,4.68,5.37,7.76,6.62a16,16,0,0,0,1.77.59l0,.09a.72.72,0,0,0,.2.52,10.62,10.62,0,0,0,4.53,3.2,25.45,25.45,0,0,0,5.44,1.34c.37.06.75.11,1.12.15v0a7.1,7.1,0,0,0,5.4,3.37,13.74,13.74,0,0,0,6.46-1,7.78,7.78,0,0,0,2.79-1.6c2.07.75,3.8,1.81,5.66,2.45a30.35,30.35,0,0,1,6.89,3.6c2.19,1.45,6.64,4.81,9.09,5.61"/><path class="cls-7" d="M329.82,298h0c0,.75.75,1.37,1.27,1.87a11.19,11.19,0,0,0,2.06,1.5,18.22,18.22,0,0,0,5.55,1.93,15.4,15.4,0,0,0,5.73.43,59.18,59.18,0,0,0,6-1.54"/><path class="cls-7" d="M393.6,285.18c-4.16-3-8.47-5.87-12.73-8.75-4.1-2.75-8.2-5.51-12.36-8.18-3.91-2.5-7.72-5.15-11.48-7.87l-2.61-1.95c-1.28-1-2.37-2.23-3.66-3.23a6.81,6.81,0,0,0-5.22-1.51,23.71,23.71,0,0,0-5.82,2.05c-4.84,2-9.64,4.15-14.43,6.26-2.35,1-4.73,1.94-7,3.11a5.64,5.64,0,0,0-3.3,4.45"/><path class="cls-7" d="M310.41,282.32h0c-.44,2.84-.94,5.63-1.41,8.47-.41,2.5-1.15,5.39,0,7.78s3.81,2.64,6.07,1.53a11.21,11.21,0,0,0,5.09-5.66,28.23,28.23,0,0,0,1.55-5.17,38.69,38.69,0,0,0,.88-4.9"/><path class="cls-7" d="M321.41,291.53a16.56,16.56,0,0,0,8.54,6.52,48.6,48.6,0,0,0,6.53,1.49,5.78,5.78,0,0,0,2.68,0,25.94,25.94,0,0,0,3.13-1.32"/><polygon class="cls-8" points="92.64 317.5 131.95 325.03 165.43 325.03 196.72 321.12 203.32 329.77 210.76 332.37 219.91 336.88 222.74 333.33 227.46 332.76 229.62 335.22 236.08 333.7 244.85 332.37 253.42 326.62 261.58 326.62 261.58 330.59 245.34 345.12 235.28 353.41 229.67 354.49 221.59 358.75 202.33 365.52 195.4 367.32 180.95 365.48 123.43 352.59 104.12 358.32 92.64 317.5"/><path class="cls-9" d="M209.78,332.37c-1.37-.17-2.86-1.44-4-2.06a12.38,12.38,0,0,1-2.4-1.24c-.69-1.55-2.67-2.27-2.33-4.31.07-.43,0-2.36.24-2.45,1-.37,2-.62,3-.93a20.73,20.73,0,0,1,2.94-.9,32.6,32.6,0,0,1,3.83.07,35.59,35.59,0,0,0,9.88-1.41,10.79,10.79,0,0,0,5.13-2.9c.52-.64,1.79-1.52,2-2.35.51-2.29,1.12-3.24-.59-5.31-1.26-1.54-3.82-1.09-5.55-1.05-3,.06-6.62-.13-9.48.75L208,309.65c-2.46.76-5.1,2-7.64,2.34-1.67.25-3.39-.08-5.07.28-1.5.31-3.06.48-4.53.85s-3.15.45-4.73.93l-4.47,1.38c-1.82.57-3.19,1.78-5,2.33a32,32,0,0,0-4.09,1.32,10.41,10.41,0,0,0-2.52,2.31c-2.24,2.28-5.72,3-8.77,3.3-2.26.22-4.48,0-6.74.05-3.44.06-6.86.17-10.3.26a120.18,120.18,0,0,1-17-.56,36.75,36.75,0,0,1-5.75-.73l-.18,0a33.45,33.45,0,0,0-6.49-1.35,14,14,0,0,1-3.55-1.17,44.09,44.09,0,0,0-6.36-1.34c-3.79-.7-7.78-1.68-11.67-1.41l.36,1.51m126.09,16c-.22.07-.49-.31-.75-.26-.86.15-2.05-.71-2.83-1-2-.7-4.09-2-6.26-2.3m-21.24,14.11a41.17,41.17,0,0,0,7.15-2.7,25.58,25.58,0,0,0,4.62-2.79c.95-.65,1.91-1.32,2.84-2,.73-.54,1.31-1.27,2-1.81,1.64-1.21,3.9-2.84,4.59-4.81m20.37,1.33h0c.8-.8.83-3.24-.5-3.76a5,5,0,0,0-4.37.62c-1.53,1-3.74,2.41-4.64,4-.16.28-.71,1.24-1,1.34M199,359.81c.5-.95.95-1.93,1.44-2.89.35-.68.14-1.4.35-2.09a7,7,0,0,1,.82-1.61,6.44,6.44,0,0,1,1.2-1.68,12.67,12.67,0,0,1,4-2.26c1.17-.36,2.4-.47,3.57-.88.38-.13.73-.82,1-1.14a10.69,10.69,0,0,1,1.23-1.59c.49-.47.79-1.09,1.32-1.52s1-.76,1.47-1.18a11.9,11.9,0,0,1,1.54-1.47c.91-.54.86-1.87,1.33-2.76a28.61,28.61,0,0,1,1.4-2.83m14.25-1c-.39.37-.68.32-1.53.33a13.73,13.73,0,0,1-2.72,0c-.63-.13.15-1.14.53-1.52m-4.67,10.55a8.08,8.08,0,0,1,.71-2,27,27,0,0,0,1.33-3.27,7.16,7.16,0,0,0,.95-2,3.73,3.73,0,0,1,.6-1.15c.33-.54.16-1.43,1.08-2.12m4.36.35a7.2,7.2,0,0,1-.64.82m.64-.82c-.22.3-.43.57-.64.82m-8.39,9.38a9.71,9.71,0,0,1,1.09-1.57,22.88,22.88,0,0,0,1.71-1.7c.47-.57.94-1.08,1.38-1.65s.7-1,1-1.49c.7-1.06,1.91-1.52,3.19-3m11-.36a5,5,0,0,1,1-.58,5.21,5.21,0,0,0,1.72-1.71c.81-1.17,2-2.44,1.56-3.94s-2-3.73-3.89-3.16-3.6,1-5.07,2.42c-1.29,1.23-5.21,5.86-5.66,6.51m-3.66,20.09c.27-.5,1.08-.34,1.63-.51a4.07,4.07,0,0,1,1.77-.08,5,5,0,0,0,3.92-1.26,35.22,35.22,0,0,1,2.79-2.81,9.38,9.38,0,0,0,1-.77,10.85,10.85,0,0,1,.87-.92,32,32,0,0,1,2.54-2.67c1.07-.81,2.11-1.63,3.18-2.45,2.37-1.81,4.59-3.65,6.9-5.55,2-1.61,4.36-2.62,6.28-4.26a2.18,2.18,0,0,0,.41-3.24c-.58-.85-1.8-1.08-2.67-1.5-1.17-.58-3.1.25-3.1.25s-7.89,5.28-9.86,5.89c-.27.08-1.85.39-1.63.25m-14,19.63c.4-.75,1.24-1.07,1.64-1.82a5,5,0,0,1,.84-1.05c.5-.48.8-1.14,1.26-1.66a5.32,5.32,0,0,1,1-1.17,6.44,6.44,0,0,0,1.24-1.15,6.58,6.58,0,0,0,1.38-2.61,5.49,5.49,0,0,1,.72-1.53c.37-.64.79-1.25,1.14-1.91.21-.39.62-.52.83-.92a8,8,0,0,0,.66-1.54,10.88,10.88,0,0,1,1.73-2.7c.66-.94.39-1.22,1.52-1.57m-45.72,31.07a4,4,0,0,1,1.82-.1,4,4,0,0,0,2.53-.3,6.17,6.17,0,0,0,2.06-1.23,5,5,0,0,1,2-.85c.86-.26,1.77-.31,2.64-.58l3.21-1c2.44-.75,4.84-1.73,7.3-2.49l2.85-.88c.89-.28,1.81-.33,2.7-.6a7.72,7.72,0,0,0,4.63-3.42m-44.58,11.41a27,27,0,0,1,2.85.47c.88.25,1.77.38,2.65.6,1.1.28,2.5,1.05,3.63.7,1.34-.42,2.4-1.33,3.73-1.74M225,345.16a11.29,11.29,0,0,0-1.38,2.22,13.49,13.49,0,0,1-1.49,2,10.45,10.45,0,0,0-.66,1.29c-.62,1.07-1.37,2-2.06,3s-2.28,1.33-3.16,2.3a4,4,0,0,1-1,.65,7.4,7.4,0,0,0-1.17.92,9,9,0,0,1-1.12.68l-1.61,1.11a18.24,18.24,0,0,1-3.37,1.88c-.77.32-1.43.78-2.24,1a10.18,10.18,0,0,0-2.08.84c-.43.24-.94.35-1.36.61s-.69.48-1.05.68a7.33,7.33,0,0,1-2.07,1.13m-97.95-17.72,2.94,10.47a6.48,6.48,0,0,0,2.18-.15c1-.13,2.06-.37,3.11-.43,2-.11,3.92,0,5.88,0,2.42,0,4.92-.16,7.33.06a42.12,42.12,0,0,0,6,.47c1.68-.09,3.38-.32,5-.29a8.45,8.45,0,0,0,2.56-.18,3.06,3.06,0,0,1,1.8.27,24.94,24.94,0,0,1,3.95,1.37,7.46,7.46,0,0,0,3.73.42h0a47.82,47.82,0,0,1,9.19,0c.67.09,1.3.08,2,.2.88.16,1.66.54,2.52.76s1.55.25,2.3.39,1.45.45,2.19.6c1.83.39,3.69.77,5.5,1.24.8.21,1.54.65,2.36.8,1.16.21,2.3.44,3.44.71a29.21,29.21,0,0,0,5.71.87c1.77.06,3.54.08,5.31.07m39.22-21.3a2.59,2.59,0,0,1-.49.91m.49-.91a7.48,7.48,0,0,0-.49.91m24.5-16.27a7.32,7.32,0,0,0,2.49-1.26c.71-.55,1.39-1.13,2.1-1.68a18.7,18.7,0,0,1,6.23-2,2.94,2.94,0,0,1,2.48,1.5,5.9,5.9,0,0,1,.44,2.11,2,2,0,0,1-1.5,1.82"/><path class="cls-2" d="M150.79,339.44a16.06,16.06,0,0,0-1.07,1.61,10.87,10.87,0,0,0-.52,2.34c-.15.83-.62,1.55-.77,2.4a6.91,6.91,0,0,0-.09,2.64,17.8,17.8,0,0,0,.79,2.19,6.28,6.28,0,0,0,.63,1.59,15.39,15.39,0,0,1,2,4.84"/><path class="cls-2" d="M147,340.34a9.69,9.69,0,0,0,.83-1.56c.37-.67.92-1.23,1.27-1.92a16.05,16.05,0,0,0,1-3.61,27.27,27.27,0,0,1,1-2.66"/><path class="cls-2" d="M173,329.69c1.19.86,2.22,2,3.4,2.88a22.16,22.16,0,0,0,7.05,3.82c3.11.86,6.66.52,9.83.51,2.79,0,5.6-.17,8.38-.36a14.8,14.8,0,0,0,3.38-.53"/><path class="cls-2" d="M192.41,316.64a6.35,6.35,0,0,1,4.22,1.81,14.53,14.53,0,0,1,1.29,1.64,10.87,10.87,0,0,1,.92,2.54"/><path class="cls-2" d="M212.19,312.1a4.4,4.4,0,0,1,.14,1.91,3.25,3.25,0,0,0,.29,1.17l.72,2.32"/><path class="cls-2" d="M215.57,315c0-1.35-.77-2.93-1.17-4.22"/><path class="cls-2" d="M207.61,344.25c2.81-.87,5.61-1.86,8.44-2.74"/><path class="cls-2" d="M187.35,359.14a10.68,10.68,0,0,1,.6-2.4,18.87,18.87,0,0,1,1.93-4.24,6.68,6.68,0,0,1,1.74-2.42,37.72,37.72,0,0,1,3.46-1.63,74,74,0,0,0,7-3.67,10.46,10.46,0,0,0,2.95-2.09c.66-.78,1.05-1.72,1.72-2.49"/><path class="cls-2" d="M215.21,354.49c.44.87,1.21.82,2,.57"/><path class="cls-2" d="M226.58,354.62c.22.17.28.51.5.71A3.19,3.19,0,0,0,229,356"/><path class="cls-2" d="M247.84,341a2,2,0,0,0,1.06,1.11"/><path class="cls-2" d="M235.17,350.77c.24,0,.43.53.56.72.27.39.84.52,1.25.69"/><path id="Path-66" d="M177.11,342.88c8.34-10.51,11.29-13,18.7-12.57s13.26,4.29,17.57,11.66Z"/><path id="Rectangle-17" class="cls-2" d="M303.73,270.51h0a6.91,6.91,0,0,1,9.39,2.69l.76,1.38a6.9,6.9,0,0,1-2.69,9.38h0a6.89,6.89,0,0,1-9.38-2.69l-.77-1.38A6.9,6.9,0,0,1,303.73,270.51Z"/><polygon id="Path-86" class="cls-6" points="273.79 298.75 280.41 287.71 278.66 286.66 272.13 297.75 273.79 298.75"/><path class="cls-6" d="M307.78,287.11l-8.24-14.87a3.73,3.73,0,0,0-5.07-1.45l-16.93,9.38a3.74,3.74,0,0,0-1.46,5.07l6.16,11.11-30.59,1.11-1.24,3.73,37.51,1,0-.14a3.61,3.61,0,0,0,1.5-.45l16.94-9.39A3.72,3.72,0,0,0,307.78,287.11Z"/><polygon id="Path-87" class="cls-6" points="251.88 297.63 250.64 295.38 247.22 302.39 250.82 301.1 251.88 297.63"/><path id="Path-99" class="cls-2" d="M246.79,297.5Q225,298.33,216,323.9"/><path id="Path-100" class="cls-2" d="M246.08,299.47q-16.12,2.64-22,23.85"/><path id="Path-105" class="cls-5" d="M149,260.88q-8.55,9.64-3.1,10.72t17-6.71Z"/><path id="Path-116" class="cls-5" d="M165,261.37q7.77-7.68,8.42-11.27t-18.21-17.48l-1.69,26.66Z"/><path id="Path-123" d="M171.1,275.68c-.92.63-1.55.85-1.9.67a9.45,9.45,0,0,1-2.07-2.66l1.55-3.21-2.44-4.05,1-2q-4.85-3.6-5.15-4.59c-.19-.66.07-2.16.79-4.49l-1.16-1.93,1.32.12,2.46,1.11-.13,1.47,1.3-5.7c1.91,2.21,2.91,3.34,3,3.4a19.94,19.94,0,0,1,.63,3.84l1.31,1.4-.24,1.64,1.57,1.7q.27,4.14.48,5.91c.61.75.15,2.46-1.38,5.11Z"/><path id="Rectangle-19" class="cls-6" d="M168.42,240.29l-3.17,22.24h0a2.31,2.31,0,0,1-2.19,2,73.2,73.2,0,0,1-13.7-.44,47.83,47.83,0,0,1-11.1-3h0a2.32,2.32,0,0,1-1.43-2.49l3.2-22.53h0a2.33,2.33,0,0,1,2-2,41.29,41.29,0,0,1,11.31.27,68.05,68.05,0,0,1,13.58,3.41h0A2.35,2.35,0,0,1,168.42,240.29Z"/><path id="Path-101-Copy" class="cls-10" d="M137.42,259.74q-1.28,3.38-3.37,3.27c.14-1.52.57-2.46,1.28-2.84A3.46,3.46,0,0,1,137.42,259.74Z"/><path id="Path-104" class="cls-5" d="M112.74,211.8q22.65,2,26.85,3.21c4.21,1.22,23.1,11.21,30.48,14.94,3.82,1.94,1.13,4.42-4.42,5.57"/><path id="Path-106" class="cls-5" d="M144.67,267.91q-7.86,5.94-11.71,4.83c-3.85-1.11-9.54-12.05-6.45-15q3.08-2.94,14.65,4.23l6.05,1.75Z"/><path id="Path-107" class="cls-5" d="M129.08,266.07q-3.27,5.58-7.45,4.37c-4.18-1.21-14.59-13.68-12.88-19.59q1.69-5.91,19.53,8.87Z"/><path id="Path-114" class="cls-5" d="M128,267.42q-6.76-13.42-3-16.3c2.61-2,4.29-.1,10.38,6.87q1.35,1.54,6.42,4.59"/><path class="cls-11" d="M219.64,221.1a14.29,14.29,0,0,1-4.07,8.12c-3.42,3.58-11.89,3.29-15.1-.46a5.72,5.72,0,0,1-1.35-4.64c.54-4.53,3.18-7.41,7.09-9.38.92-.46,1.92-.73,2.86-1.13a8.06,8.06,0,0,1,9.52,2.37,6,6,0,0,1,1,5.12Z"/><path class="cls-12" d="M227.22,259.5a10.71,10.71,0,0,1-3,5.45c-2.29,2.31-7.4,1.64-9.13-1.13a4.38,4.38,0,0,1-.55-3.3,8.09,8.09,0,0,1,4.88-6.15c.59-.27,1.2-.41,1.79-.65a4.53,4.53,0,0,1,5.63,2.15,4.69,4.69,0,0,1,.35,3.63Z"/><path class="cls-13" d="M192.69,245a10.36,10.36,0,0,1-1.9,6.39c-2,3-8.18,3.9-11,1.63a4.42,4.42,0,0,1-1.61-3.2c-.18-3.33,1.36-5.77,3.92-7.68.61-.43,1.29-.78,1.92-1.19a6,6,0,0,1,7.21.49,4.42,4.42,0,0,1,1.43,3.56Z"/><line class="cls-2" x1="183.88" y1="254.28" x2="191.24" y2="332.79"/><line class="cls-2" x1="209.44" y1="231.71" x2="195.21" y2="331.7"/><line class="cls-2" x1="218.77" y1="266.21" x2="199.81" y2="331.14"/><path class="cls-14" d="M152.8,268.64a9.27,9.27,0,0,1-5.51,2.11c-.94-.07-3.77-1.15-1.78-1.95,1.64-.66,5.57-3,7.34-1.66a.9.9,0,0,1,.38,1A1.18,1.18,0,0,1,152.8,268.64Z"/><path class="cls-14" d="M110.48,257.05c-1.49-1.65-2.61-4.49-.81-6.28a.54.54,0,0,1,.37-.19c.22,0,.36.24.45.45.83,1.84,1.86,3.5,1.65,5.57a1.18,1.18,0,0,1-.42.92C111.31,257.71,110.8,257.4,110.48,257.05Z"/><path class="cls-14" d="M124.37,252.51a.88.88,0,0,1,1.26.06l0,0a3.29,3.29,0,0,1,.72,1.15c.63,1.48,1.33,3,1.82,4.5a1.78,1.78,0,0,1,.1,1.07,1.23,1.23,0,0,1-1.38.72,2.39,2.39,0,0,1-1.37-.94,9.46,9.46,0,0,1-1.37-2.95,4.75,4.75,0,0,1-.38-2.55A2,2,0,0,1,124.37,252.51Z"/><path class="cls-15" d="M308.2,293.07a7.18,7.18,0,0,1,.77-2.47,2.47,2.47,0,0,1,2.11-1.28.86.86,0,0,1,.51.16,1.12,1.12,0,0,1,.27.43,5,5,0,0,1-3.45,7.2A6.55,6.55,0,0,1,308.2,293.07Z"/><path class="cls-2" d="M28.8,349.22c3.69,3,7.18,8,11.8,6.84a32.66,32.66,0,0,1,3.25-1.1c2.63-.39,4.84,1.76,6.78,3.55,3.31,3.05,8.38,5.58,12.07,3,.91-.64,1.7-1.56,2.79-1.7a4.26,4.26,0,0,1,2.43.68c3.3,1.74,7.34,3.7,10.48,1.71,1.77-1.12,2.85-3.34,4.89-3.84,1.52-.35,3.08.38,4.52,1a10.85,10.85,0,0,0,6.66,1.05c2.23-.54,4.19-2.67,3.83-4.93a4.4,4.4,0,0,1-.19-2c.3-.93,1.44-1.23,2.4-1.39L109,350.7c-1.3-4.94-4.47-9.16-6.74-13.75s-3.57-10.24-1-14.7a5.4,5.4,0,0,0,1.09-2.67c0-1.68-1.9-2.63-3.49-3.15-15.63-5-32.74-4-48.3-9.22-2.89-1-5.74-2.15-8.76-2.44"/><path class="cls-2" d="M46.74,347.18A16.63,16.63,0,0,1,39.88,336c-.91-5.06.08-10.19,1.79-15,1-3,2.36-5.82,3.69-8.64a.44.44,0,0,0-.21-.58.44.44,0,0,0-.43,0C35,319.3,32.56,342.76,32,343.81c-1.35,2.49.32-21.82,5.91-31.2"/><path class="cls-2" d="M29.65,311.79h0a36.77,36.77,0,0,0-13.44,30.62.46.46,0,0,0,.5.39.45.45,0,0,0,.34-.24,78.89,78.89,0,0,1,20.69-29.78"/><path class="cls-6" d="M107,330.22A26.52,26.52,0,0,0,110.26,349c2.27,3.86,5.39,10.82-2.32,11.36-3.75.27-8.76.66-11.79-1.95a13.5,13.5,0,0,1-3.49-5.77,59.88,59.88,0,0,1-2.75-31.54c.39-2.15,1.07-4.51,3-5.63s4.32-.55,6.45.06c3.18.91,6.75,2.1,8.18,5.1S107.65,327,107,330.22Z"/><path class="cls-2" d="M110.65,355.62a134.36,134.36,0,0,1-21.51-.43"/><path class="cls-2" d="M110.13,351.42l-22.27-1.19"/><path class="cls-2" d="M107.27,343.53,84.62,341"/><path class="cls-2" d="M105.89,335.24l-22.14-2"/><path class="cls-2" d="M107.49,328.82l-25.28-5.18"/><path class="cls-2" d="M106.83,323.87a119.67,119.67,0,0,0-21.61-5.95"/><path class="cls-2" d="M447.92,299.31c-2.52,3.38,10.64,19.05,12.59,21.92,6.6,9.5,6.49,16.9.35,27.64-7.37-2.39-2.24-15.13-9.59-18.94.18,6.74,6.14,14.61.08,20.41-1.85-3.73-2.57-38.58-10-34.8-4.59,2.31,7.85,27.65,1.2,34.86,3.28-3.56-3.84-23.22-5.3-27-1.74-4.39-4-9.36-7.8-12.46-3-2.41-13.7-10.83-17-12.78"/><path class="cls-2" d="M35,221.25c-4.24-2-25.67-10.35-27.76-3.54-1.2,3.87,4.24,8.89,3.5,13.81-8.47,1.49-8.21-16.26-18-14.6.86,6.19,9.18,8.49,8,16.07-5-3.78-8-12.55-15.79-10.77,2,3.07,5.41,6.54,5.06,10.61,0,.38-11.38-13.36-12.77-15.94-3.7-6.8-5.87-13.86-15.23-10.29-2,.73-1.58,4.44-5.1,4.48-3.13,0-3.56-3.28-5.53-4.73"/><path class="cls-6" d="M371.82,309c2-1.77,4.9-3.44,6.44-5.12a60.3,60.3,0,0,0,8.43-11.75,33.2,33.2,0,0,0,3.38-10.2c.22-2,19.52,9.3,21.65,12.94,2.68,4.6-1.37,8.81-3.6,12.48-5.35,8.66-11.9,21.19-22.66,23.69-3.24.71-2.66,0-4.8-3.39-3.43-5.56-4.94-12.61-10.67-16.4A6.32,6.32,0,0,1,371.82,309Z"/><path class="cls-2" d="M412.07,303.15c-1.55-4.49-21-17.69-22-18.27"/><path class="cls-2" d="M404.94,316.52c-5.54-4.25-18.08-16.59-21.36-19"/><path class="cls-2" d="M408,308.69c-3.26-4.13-18.22-13.75-21.13-15.88"/><path class="cls-2" d="M385.54,331.71c-.94-6.84-12.51-20.88-14.39-22.23"/><path class="cls-2" d="M394.44,326.91c-1.49-1.83-2.89-3.75-4.19-5.66-3.9-5.76-10-11.54-13.63-15.58"/><path class="cls-2" d="M399.64,322.24c-4.21-4.43-18.32-19.54-19.35-20.89"/><path class="cls-16" d="M163.34,229.08c.47-2.13,6.22.83,7.16,1.81a1.25,1.25,0,0,1,.35.58,1.16,1.16,0,0,1-.66,1.08c-1,.61-3.08.4-4.69-.36C164.08,231.52,163,230.42,163.34,229.08Z"/><path class="cls-5" d="M170.83,233.44c-2.35,2.09-5.78,2.56-8.9,2.15s-6.08-1.66-9.07-2.62a106.86,106.86,0,0,0-13.39-3.06"/><path class="cls-7" d="M342.53,267.86a5.31,5.31,0,0,1-3.84,2.42,34.77,34.77,0,0,1-4.68.23c-3,.13-6,1-9.05,1-6.72,0-13.18-4.27-19.79-3A2.81,2.81,0,0,0,304,269a8.47,8.47,0,0,0-1.51,1.48,5.94,5.94,0,0,0-.63,4.76,6.27,6.27,0,0,0,1.94,2.84,20.6,20.6,0,0,0,9,5,69.12,69.12,0,0,0,9.1,1.23,17.06,17.06,0,0,1,8.55,3,25,25,0,0,1,3.7,3.93,39.6,39.6,0,0,0,3.54,3.79c4.81,4.38,12.3,7.34,18.59,9.09"/><path class="cls-15" d="M305.17,273.88a4.71,4.71,0,0,1,.17-2.07,2.36,2.36,0,0,1,1.15-1.64,4.22,4.22,0,0,1,2.74,0,14.62,14.62,0,0,1,3.65,1.81,4.91,4.91,0,0,1,2.26,3c.37,1.33-.59,3.65-2.17,3.83a2.76,2.76,0,0,1-1.58-.11,14.17,14.17,0,0,1-3.41-1A4.12,4.12,0,0,1,305.17,273.88Z"/><line class="cls-2" x1="380.38" y1="329.43" x2="392.28" y2="351.46"/><path class="cls-2" d="M70.22,146.48v-8.33"/><path class="cls-2" d="M70.22,160v-8.34"/><path class="cls-2" d="M72.79,149.05h8.33"/><path class="cls-2" d="M59.33,149.05h8.33"/><path id="Path_50605" data-name="Path 50605" class="cls-17" d="M171.57,517.83A8.31,8.31,0,1,0,170,506.19,8.3,8.3,0,0,0,171.57,517.83Z"/><path d="M146,509.85a2.16,2.16,0,0,0-2.15,2.14h0a2.14,2.14,0,0,0,2.14,2.14h0a2.13,2.13,0,0,0,2.14-2.13h0a2.15,2.15,0,0,0-2.13-2.15Z"/><path d="M169.24,509.85A2.14,2.14,0,0,0,167.1,512h0a2.13,2.13,0,0,0,2.13,2.14h0a2.15,2.15,0,0,0,2.15-2.14h0a2.16,2.16,0,0,0-2.14-2.15Z"/><path id="XMLID_228_2" data-name="XMLID 228 2" d="M192.48,509.85a2.14,2.14,0,0,0-2.14,2.14h0a2.13,2.13,0,0,0,2.13,2.14h0a2.14,2.14,0,0,0,2.14-2.14h0A2.16,2.16,0,0,0,192.48,509.85Z"/><path id="XMLID_227_2" data-name="XMLID 227 2" d="M215.69,509.85a2.16,2.16,0,0,0-2.15,2.14h0a2.14,2.14,0,0,0,2.14,2.14h0a2.14,2.14,0,0,0,2.14-2.14h0a2.15,2.15,0,0,0-2.13-2.15Z"/><path id="XMLID_226_2" data-name="XMLID 226 2" d="M238.93,509.85a2.15,2.15,0,0,0-2.15,2.14h0a2.14,2.14,0,0,0,2.14,2.14h0a2.14,2.14,0,0,0,2.14-2.14h0A2.18,2.18,0,0,0,238.93,509.85Z"/><path id="XMLID_225_2" data-name="XMLID 225 2" d="M262.13,509.85A2.14,2.14,0,0,0,260,512h0a2.13,2.13,0,0,0,2.13,2.14h0a2.14,2.14,0,0,0,2.14-2.14h0a2.14,2.14,0,0,0-2.13-2.15Z"/><path d="M285.34,509.85a2.16,2.16,0,0,0-2.15,2.14h0a2.14,2.14,0,0,0,2.14,2.14h0a2.14,2.14,0,0,0,2.14-2.14h0a2.15,2.15,0,0,0-2.13-2.15Z"/><path id="XMLID_223_2" data-name="XMLID 223 2" d="M308.57,514.14a2.14,2.14,0,0,0,2.15-2.14h0a2.15,2.15,0,0,0-2.14-2.15h0a2.14,2.14,0,0,0-2.14,2.14h0a2.14,2.14,0,0,0,2.14,2.14Z"/><path d="M146,525.91a2.14,2.14,0,0,0-2.15,2.13h0a2.14,2.14,0,0,0,2.14,2.14h0a2.13,2.13,0,0,0,2.14-2.13h0a2.13,2.13,0,0,0-2.13-2.14Z"/><path id="XMLID_221_2" data-name="XMLID 221 2" d="M169.24,525.91A2.13,2.13,0,0,0,167.1,528h0a2.13,2.13,0,0,0,2.13,2.14h0a2.15,2.15,0,0,0,2.15-2.13h0a2.14,2.14,0,0,0-2.14-2.14Z"/><path d="M192.48,525.91a2.13,2.13,0,0,0-2.14,2.13h0a2.13,2.13,0,0,0,2.13,2.14h0a2.13,2.13,0,0,0,2.14-2.13h0A2.16,2.16,0,0,0,192.48,525.91Z"/><path d="M215.69,525.91a2.14,2.14,0,0,0-2.15,2.13h0a2.14,2.14,0,0,0,2.14,2.14h0a2.13,2.13,0,0,0,2.14-2.13h0a2.13,2.13,0,0,0-2.13-2.14Z"/><path d="M238.93,525.91a2.14,2.14,0,0,0-2.15,2.13h0a2.14,2.14,0,0,0,2.14,2.14h0a2.13,2.13,0,0,0,2.14-2.13h0A2.18,2.18,0,0,0,238.93,525.91Z"/><path d="M262.13,525.91A2.13,2.13,0,0,0,260,528h0a2.13,2.13,0,0,0,2.13,2.14h0a2.13,2.13,0,0,0,2.14-2.13h0a2.13,2.13,0,0,0-2.13-2.14Z"/><path d="M285.34,525.91a2.14,2.14,0,0,0-2.15,2.13h0a2.14,2.14,0,0,0,2.14,2.14h0a2.13,2.13,0,0,0,2.14-2.13h0a2.14,2.14,0,0,0-2.14-2.14Z"/><path d="M308.57,525.91a2.13,2.13,0,0,0-2.14,2.13h0a2.14,2.14,0,0,0,2.14,2.14h0a2.14,2.14,0,0,0,2.15-2.13h0a2.14,2.14,0,0,0-2.14-2.14Z"/><path d="M146,542a2.15,2.15,0,0,0-2.15,2.13h0a2.14,2.14,0,0,0,2.14,2.14h0a2.13,2.13,0,0,0,2.14-2.13h0a2.13,2.13,0,0,0-2.13-2.14Z"/><path d="M169.24,542a2.13,2.13,0,0,0-2.14,2.13h0a2.13,2.13,0,0,0,2.13,2.14h0a2.14,2.14,0,0,0,2.15-2.13h0a2.14,2.14,0,0,0-2.14-2.14Z"/><path d="M192.48,542a2.13,2.13,0,0,0-2.14,2.13h0a2.13,2.13,0,0,0,2.13,2.14h0a2.13,2.13,0,0,0,2.14-2.13h0A2.16,2.16,0,0,0,192.48,542Z"/><path d="M215.69,542a2.15,2.15,0,0,0-2.15,2.13h0a2.14,2.14,0,0,0,2.14,2.14h0a2.13,2.13,0,0,0,2.14-2.13h0a2.14,2.14,0,0,0-2.14-2.14Z"/><path d="M238.93,542a2.14,2.14,0,0,0-2.15,2.13h0a2.14,2.14,0,0,0,2.14,2.14h0a2.13,2.13,0,0,0,2.14-2.13h0A2.18,2.18,0,0,0,238.93,542Z"/><path d="M262.13,542a2.13,2.13,0,0,0-2.14,2.13h0a2.13,2.13,0,0,0,2.13,2.14h0a2.13,2.13,0,0,0,2.14-2.13h0a2.13,2.13,0,0,0-2.13-2.14Z"/><path d="M285.34,542a2.15,2.15,0,0,0-2.15,2.13h0a2.14,2.14,0,0,0,2.14,2.14h0a2.13,2.13,0,0,0,2.14-2.13h0a2.13,2.13,0,0,0-2.13-2.14Z"/><path d="M308.57,542a2.13,2.13,0,0,0-2.14,2.13h0a2.14,2.14,0,0,0,2.14,2.14h0a2.14,2.14,0,0,0,2.15-2.13h0a2.14,2.14,0,0,0-2.14-2.14Z"/><path d="M146,558a2.16,2.16,0,0,0-2.15,2.14h0a2.14,2.14,0,0,0,2.14,2.14h0a2.13,2.13,0,0,0,2.14-2.13h0a2.15,2.15,0,0,0-2.13-2.15Z"/><path d="M169.24,558a2.14,2.14,0,0,0-2.14,2.14h0a2.13,2.13,0,0,0,2.13,2.14h0a2.15,2.15,0,0,0,2.15-2.13h0a2.16,2.16,0,0,0-2.14-2.15Z"/><path d="M192.48,558a2.14,2.14,0,0,0-2.14,2.14h0a2.13,2.13,0,0,0,2.13,2.14h0a2.13,2.13,0,0,0,2.14-2.13h0A2.16,2.16,0,0,0,192.48,558Z"/><path d="M215.69,558a2.16,2.16,0,0,0-2.15,2.14h0a2.14,2.14,0,0,0,2.14,2.14h0a2.13,2.13,0,0,0,2.14-2.13h0A2.15,2.15,0,0,0,215.7,558Z"/><path d="M238.93,558a2.15,2.15,0,0,0-2.15,2.14h0a2.14,2.14,0,0,0,2.14,2.14h0a2.13,2.13,0,0,0,2.14-2.13h0A2.19,2.19,0,0,0,238.93,558Z"/><path d="M262.13,558a2.14,2.14,0,0,0-2.14,2.14h0a2.13,2.13,0,0,0,2.13,2.14h0a2.13,2.13,0,0,0,2.14-2.13h0a2.14,2.14,0,0,0-2.13-2.15Z"/><path d="M285.34,558a2.16,2.16,0,0,0-2.15,2.14h0a2.14,2.14,0,0,0,2.14,2.14h0a2.13,2.13,0,0,0,2.14-2.13h0a2.15,2.15,0,0,0-2.13-2.15Z"/><path d="M308.57,558a2.14,2.14,0,0,0-2.14,2.14h0a2.14,2.14,0,0,0,2.14,2.14h0a2.14,2.14,0,0,0,2.15-2.13h0a2.16,2.16,0,0,0-2.14-2.15Z"/><path id="Path_50604" data-name="Path 50604" class="cls-18" d="M268.75,103.61a2.75,2.75,0,1,0-3.8-.84A2.78,2.78,0,0,0,268.75,103.61Z"/><line class="cls-2" x1="266.89" y1="202.21" x2="288.95" y2="202.22"/><line class="cls-2" x1="259.45" y1="174.35" x2="278.57" y2="163.34"/><line class="cls-2" x1="239.09" y1="153.94" x2="250.14" y2="134.85"/><line class="cls-2" x1="211.25" y1="146.44" x2="211.27" y2="124.39"/><path class="cls-2" d="M56.71,93.82c3.35,0,3.35-5,6.67-5s3.33,5,6.68,5,3.32-5,6.67-5,3.32,5,6.65,5,3.35-5,6.67-5"/><path class="cls-19" d="M74,460.91c-.66-9.13-2.92-17.11-6.19-22.88l-6.75,1.88,5.39-4.08c-3.75-5.5-8.57-8.35-13.76-7.27C42.52,430.68,45.55,456,52,471.29a97.36,97.36,0,0,0,16.75,26.12A90,90,0,0,0,74,460.91Z"/><path class="cls-15" d="M80.8,508.89a41.08,41.08,0,0,1,1.9-15.62c2.26-6.2,6.27-10.82,9.49-8.93,3.79,2.24,1.56,9.15-1.9,14.4A54.63,54.63,0,0,1,80.8,508.89Z"/><path class="cls-2" d="M53.38,428.26c.19.67,19.08,67.66,19.08,106.64,0,21.05,1,56.19,1,56.54"/><path class="cls-20" d="M63.51,564.12s-.67-13.27-7-20.53S40.31,533,36.27,536,34,551,45.2,558.2,63.51,564.12,63.51,564.12Z"/><path class="cls-2" d="M73.47,584.54c-3.51-19.2-18.87-29.37-19-29.47"/><path class="cls-2" d="M72.77,554.87c.68-32.93,9.83-52,9.93-52.22"/><path class="cls-19" d="M134.81,499.74c7.81-10.13,6.95-16.39,5.69-19.49-2.58-6.29-21.07-6.55-36.38,13.91a54,54,0,0,0-3.92,6.09l9.59,3.32-10.9-.71a49.72,49.72,0,0,0-4.89,25s13-1.67,30.42-17.2a90.63,90.63,0,0,0,8.3-8.33l-4.92-4.91Z"/><path class="cls-2" d="M73.08,576c7.37-31.29,24.65-56.09,38.28-71.38,14.74-16.56,28-25.86,28.1-25.95"/><circle class="cls-21" cx="180.13" cy="49.16" r="7.45"/><path class="cls-21" d="M137.11,572.77a2.51,2.51,0,1,1-2.5-2.5A2.5,2.5,0,0,1,137.11,572.77Z"/><path class="cls-2" d="M393.06,65.32c-1.59-4.43-8.83-7-16.6-7.36a45.23,45.23,0,0,1,.21,5.46,25.15,25.15,0,0,0-2.32-5.51,46.46,46.46,0,0,0-14.75,2.31c-12.14,4.21-18.05,12-14.08,22.7a11.83,11.83,0,0,0,7.15,7.41,21.49,21.49,0,0,0,.33-5.19s.46,3,.94,5.63c5.66,1.51,12.63-.24,17.55-2.21a51.23,51.23,0,0,0-2.81-14.81s3.43,3.64,6.69,13C384.89,81.82,395.9,73.23,393.06,65.32Z"/><path class="cls-2" d="M345.49,72.26c3.35-5.25,4.38-11.94,4.38-17.22a50.8,50.8,0,0,0-3.33-17.95,53.23,53.23,0,0,0-13.7-.43s6.73-2.28,13-1.46c-4.18-9.92-10-17.71-16.78-17.73-10.15,0-20.6,20.94-20.86,37.05,0,1,0,2,0,3,2.41-.25,6.05-.56,10.33-.66,7.76-.19,10.5.52,10.5.52s-13.58,1.06-20.6,3.26c1.38,12.54,8,20.27,20.43,20.21,7.17,0,12-2.74,15.2-6.62l-8.24-1.59C335.92,72.59,342.24,72.37,345.49,72.26Z"/><line class="cls-2" x1="329.46" y1="17.75" x2="329.46" y2="168.84"/><path class="cls-2" d="M328.7,98.37c.23-.29,24.1-29.33,64-33.08"/><path class="cls-15" d="M346.74,119a5.47,5.47,0,1,1-5.46-5.46h0A5.47,5.47,0,0,1,346.74,119Z"/><circle class="cls-3" cx="364.43" cy="100.75" r="7.45"/><circle class="cls-20" cx="301.41" cy="93.22" r="11.06"/><path class="cls-21" d="M359.15,154.07a2.5,2.5,0,1,1-2.5-2.5A2.5,2.5,0,0,1,359.15,154.07Z"/></svg>